<svg xmlns="http://www.w3.org/2000/svg" xmlns:xlink="http://www.w3.org/1999/xlink" width="25px" height="30px" viewBox="0 0 25 30" role="img" version="1.1">
    <title>Fair Trade</title>
    <desc>Fair Trade Certified</desc>
    <defs/>
    <g class="fair-trade-outside" stroke="none" stroke-width="1" fill="none" fill-rule="evenodd">
        <g class="fair-trade-inside" transform="translate(-4.000000, -1.000000)" fill="#363636">
            <g transform="translate(4.000000, 1.000000)">
                <path d="M13.1818182,3.21294958 C13.1818182,1.43589541 11.7090708,0 9.88636364,0 C8.06730189,0 6.59090909,1.43589541 6.59090909,3.21294958 C6.59090909,4.98822225 8.06730189,6.42857143 9.88636364,6.42857143 C11.7090708,6.42857143 13.1818182,4.98822225 13.1818182,3.21294958" class="we-icon__fair-trade-path"/>
                <g class="we-icon__fair-trade-inner" transform="translate(0.000000, 6.428571)">
                    <path d="M5.78667505,6.42857143 L6.59090909,10.3923857 C4.79296717,10.9095807 3.34411019,11.7209302 2.45337722,12.8571429 C2.29067686,12.3892431 2.1969697,11.9011403 2.1969697,11.4114214 C2.1969697,9.39840172 3.59742847,7.61327108 5.78667505,6.42857143 L5.78667505,6.42857143 Z M10.9856791,10.7142857 C14.6245919,10.7142857 17.5757576,11.4917551 17.5757576,12.4457242 C17.5757576,12.5880428 17.5068167,12.7278754 17.3764106,12.8571429 C17.3764106,12.8571429 16.4170533,11.4762181 10.9856791,11.4762181 C5.48868649,11.4762181 4.59245575,12.8571429 4.59245575,12.8571429 C4.45872716,12.7278754 4.39393939,12.5880428 4.39393939,12.4457242 C4.39393939,11.4917551 7.34593573,10.7142857 10.9856791,10.7142857 L10.9856791,10.7142857 Z M15.7823014,6.42857143 C16.8870115,7.70847994 17.5757576,9.5601689 17.5757576,11.635292 C17.5757576,12.044335 17.5480266,12.4656932 17.4931307,12.8571429 C17.0081222,11.8121042 16.2673099,11.0459184 15.3787879,10.5330753 L15.7823014,6.42857143 Z M9.88525785,15 C5.60735196,15 4.39393939,13.8798562 4.39393939,13.8798562 C4.39393939,13.8798562 5.86020767,12.8571429 9.67810783,12.8571429 C13.9655972,12.8571429 15.3787879,13.8798562 15.3787879,13.8798562 C15.3787879,13.8798562 14.1543175,15 9.88525785,15 L9.88525785,15 Z M1.77421008,15.6928664 C1.77421008,17.0473657 2.17715008,18.5061225 2.84208069,19.6461736 C3.46082452,20.7133292 4.29696482,21.6245224 5.28042507,22.3204197 C6.6230275,23.2706035 8.04128071,23.5893093 9.63631787,23.5706616 C10.4071596,23.563033 11.179594,23.5409948 11.9504357,23.4604708 C12.6368671,23.3909658 13.4140794,23.0909078 14.0391938,22.7908497 C14.6659009,22.4848583 15.2225314,22.0585046 15.7170487,21.5465412 C16.6591001,20.5819478 17.5071852,19.3706965 17.9093289,18.0356925 C18.130707,17.3033474 18.2676747,16.4642021 18.2676747,15.6928664 C18.2676747,15.0198548 18.1673379,14.4121101 17.9985172,13.850137 C19.108593,12.421047 19.7727273,10.6995275 19.7727273,8.82628377 C19.7727273,3.95161192 15.3459616,0 9.88397466,0 C4.42517299,0 0,3.95161192 0,8.82628377 C0,10.8097183 0.731821843,12.6304095 1.97329111,14.0967949 C1.84189763,14.5918059 1.77421008,15.1232647 1.77421008,15.6928664 L1.77421008,15.6928664 Z" class="we-icon__fair-trade-path"/>
                </g>
            </g>
        </g>
    </g>
</svg>
