<svg xmlns="http://www.w3.org/2000/svg" xmlns:xlink="http://www.w3.org/1999/xlink" width="22px" height="30px" viewBox="0 0 22 30" role="img" version="1.1">
    <defs/>
    <g class="leaf-outer" stroke="none" stroke-width="1" fill="none" fill-rule="evenodd">
        <g class="leaf-inner" transform="translate(-5.000000, -1.000000)" fill="#363636">
            <g class="we-icon__organic-inner" transform="translate(5.000000, 1.000000)">
                <path d="M21.4285714,28.9528337 C21.3432083,29.0210184 21.2739693,29.0901914 21.1914515,29.1366361 C21.0377978,29.2255727 20.9031137,29.3342731 20.7703266,29.4627371 C20.6043427,29.6247995 20.4336163,29.7829091 20.2828081,29.958806 C20.2486628,29.9953689 20.2107236,30.0111798 20.1680421,29.9914161 C20.0703487,29.9489242 19.9745522,29.9093968 19.8834982,29.857023 C19.7820109,29.7927909 19.685266,29.7186771 19.588521,29.6445632 C19.3058741,29.4241979 19.0298666,29.1979036 18.7443742,28.9824792 C18.5432965,28.8283223 18.3223008,28.6939292 18.1193262,28.5427369 C17.7864098,28.2986552 17.4610813,28.0476562 17.1357529,27.7996217 C16.965975,27.6721458 16.7924032,27.5486227 16.6283163,27.4152177 C16.3978357,27.2304271 16.1730461,27.037731 15.9482564,26.8460231 C15.8173662,26.7373228 15.6931154,26.6236815 15.5660191,26.5120166 C15.480656,26.43395 15.3962413,26.3548952 15.3070842,26.2788049 C15.0955733,26.0999434 14.8764745,25.9329402 14.6744483,25.7441968 C14.4430193,25.5267961 14.2334053,25.2916081 14.0105126,25.0682782 C13.8426317,24.9002868 13.6576782,24.7461299 13.4954882,24.5731975 C13.3332982,24.4002652 13.1312721,24.2757538 12.9795153,24.0820696 C12.8220677,23.881468 12.624784,23.710512 12.4455213,23.5247332 C12.3886126,23.4654421 12.3430855,23.395281 12.2852283,23.3359899 C12.1458018,23.1956676 12.0016329,23.0573217 11.8603094,22.9179876 C11.7095012,22.7677835 11.553002,22.6215321 11.4078847,22.4644106 C11.3500274,22.4031432 11.3111398,22.3191474 11.2722521,22.2410808 C11.2238796,22.135345 11.2058585,22.1234868 11.1005773,22.1610378 C11.092041,22.1649906 11.0825562,22.1709197 11.0730714,22.1719079 C10.813188,22.215388 10.5940892,22.3497812 10.3749904,22.493068 C10.2877303,22.5503827 10.1852945,22.5938629 10.0838072,22.610662 C9.90833845,22.6403076 9.73950909,22.6956459 9.58964931,22.786559 C9.44927434,22.8735193 9.28992977,22.8764838 9.14670935,22.9367631 C9.06324315,22.9713496 8.97598302,22.9960542 8.89061986,23.0266879 C8.71515114,23.09092 8.54347634,23.1808448 8.3642137,23.2144431 C8.15649667,23.2539705 7.94024332,23.2964625 7.72588694,23.2431005 C7.58930588,23.2095022 7.4536733,23.208514 7.3142468,23.2253131 C7.25544107,23.2322304 7.19189294,23.2154313 7.13403568,23.1966558 C6.88743099,23.1205655 6.64462022,23.0316289 6.39706705,22.9585032 C6.14666844,22.8834011 5.88583655,22.8379446 5.63828338,22.7539489 C5.25984003,22.6225203 4.8757058,22.4999853 4.54468643,22.2559036 C4.41189929,22.1570851 4.26962735,22.0740776 4.12830389,21.99107 C3.87885376,21.8428423 3.65975498,21.6511344 3.44634707,21.4534973 C3.30881754,21.3260215 3.18836063,21.1768055 3.05841893,21.040436 C2.94839529,20.9238302 2.82888687,20.8171062 2.72645107,20.6925949 C2.56426107,20.4949579 2.41060737,20.2864508 2.25695368,20.0789319 C2.16115724,19.9494797 2.07105168,19.8150865 1.98474004,19.6797052 C1.92688279,19.5897804 1.87851033,19.49195 1.82824091,19.3970843 C1.80168348,19.3437223 1.78271389,19.2864075 1.75236254,19.2379865 C1.65846307,19.085806 1.59586341,18.9247318 1.56551207,18.743894 C1.53800616,18.5808434 1.47350955,18.4217456 1.42987949,18.2596833 C1.33503153,17.9177713 1.24492597,17.5719065 1.15007801,17.2309826 C1.09411772,17.0293929 1.03056958,16.8327441 0.974609289,16.6331307 C0.918648994,16.4315409 0.867431097,16.2309394 0.811470802,16.031326 C0.709983486,15.6676739 0.604702253,15.3079745 0.500369499,14.947287 C0.367582358,14.4858046 0.262301125,14.0213576 0.218671064,13.5401115 C0.175041003,13.0559008 0.104853515,12.5756429 0.0574295355,12.0924204 C0.0327690665,11.8315396 0.0327690665,11.5686823 0.0194903524,11.3068133 C0.0147479545,11.1882311 -0.00327315756,11.0686607 0.000520760758,10.9500785 C0.00716011782,10.7731934 0.0318205869,10.5963082 0.0403569031,10.4184349 C0.0583780151,10.0567592 0.102956555,9.69705986 0.106750474,9.33439594 C0.111492872,8.95789744 0.163659248,8.58337531 0.200649952,8.20885318 C0.22720738,7.92227951 0.259455686,7.6386704 0.291703992,7.35308493 C0.303085747,7.25525461 0.324900777,7.15742429 0.337231012,7.05959397 C0.358097562,6.90444892 0.359994522,6.74337475 0.396036746,6.59020607 C0.473812071,6.25916408 0.570556988,5.93009846 0.65781711,5.60103284 C0.741283313,5.28481363 0.820007118,4.96760623 0.90631876,4.6523752 C0.948051861,4.49525377 1.00496064,4.34307328 1.05048766,4.18694004 C1.07989052,4.08219242 1.09980859,3.97546844 1.12446906,3.86973264 C1.13490234,3.8262525 1.14249017,3.78178417 1.16051129,3.74126858 C1.24871989,3.52979698 1.29614387,3.30646716 1.33787697,3.08214916 C1.35305264,3.00507072 1.37107375,2.92601592 1.39952814,2.85289023 C1.4991185,2.59892667 1.55413031,2.33409308 1.59396645,2.06333038 C1.61672996,1.91213806 1.66984482,1.76588668 1.7125264,1.61864711 C1.76753822,1.42891558 1.82160155,1.23819586 1.88325273,1.05142889 C1.9354191,0.898260207 1.99896724,0.747067895 2.05682449,0.594887398 C2.07674256,0.539549035 2.09381519,0.482234302 2.11752718,0.42887231 C2.13175438,0.398238574 2.14882701,0.354758431 2.17443596,0.345864766 C2.2977383,0.309301919 2.33378053,0.201589749 2.38215299,0.0988185046 C2.39638018,0.0691729532 2.41724673,0.0444683271 2.44759808,0 C2.49976445,0.130440426 2.55193083,0.240128966 2.58987001,0.354758431 C2.67713014,0.612674728 2.80517488,0.847862769 2.95693161,1.07218077 C3.07928548,1.25400682 3.17033952,1.45757294 3.27846619,1.65026903 C3.31071449,1.70956013 3.35149912,1.76588668 3.38754134,1.82418959 C3.45583187,1.93091358 3.52222544,2.0415903 3.59525837,2.14436155 C3.71856071,2.31531756 3.84850242,2.47935628 3.97180476,2.64833592 C4.10079798,2.82719742 4.22410033,3.00902346 4.35024811,3.18887314 C4.38249642,3.23729421 4.41853864,3.28472709 4.45363239,3.33117179 C4.6063376,3.52090332 4.77042457,3.70174118 4.9126965,3.90036638 C5.09670154,4.15334175 5.3214912,4.35295513 5.57663221,4.52193477 C5.75968877,4.6454579 5.92851813,4.79368566 6.09924446,4.93499612 C6.29652821,5.10002302 6.48243021,5.2798727 6.68635332,5.43304138 C6.79732543,5.51703711 6.87794619,5.62079654 6.96900023,5.71961505 C7.07902387,5.83622088 7.20612013,5.93602757 7.33511335,6.02792878 C7.65285401,6.25323497 8.01327625,6.38762814 8.36041978,6.5487023 C8.46001013,6.59415881 8.55865201,6.64554443 8.65919085,6.69001276 C8.86595939,6.7799376 9.07841882,6.85602785 9.27949649,6.95583454 C9.54127685,7.08528678 9.7945209,7.23351454 10.0515589,7.374825 C10.324721,7.52404094 10.5978831,7.67523325 10.8719937,7.82543738 C10.8938087,7.8372956 10.9156238,7.84915382 10.9374388,7.85409474 C11.0977318,7.88176393 11.2257766,7.97761788 11.345285,8.07940094 C11.531187,8.23948691 11.7493373,8.3392936 11.9542089,8.46578129 C12.0016329,8.49542684 12.0500053,8.52902513 12.0993263,8.5576825 C12.1723592,8.60313901 12.2472891,8.64760734 12.3241159,8.68911111 C12.4265517,8.74543766 12.5308845,8.79879965 12.6390112,8.85611438 C12.7879225,8.94011011 12.9406277,9.02114128 13.0914359,9.10711338 C13.3968463,9.28103395 13.6804417,9.48756463 13.9412736,9.72769359 C14.0105126,9.78994925 14.0541427,9.87493316 14.1157939,9.94311793 C14.3235109,10.1753414 14.5236401,10.4174468 14.7417904,10.6368238 C15.0244373,10.9214211 15.2549178,11.2504867 15.4711712,11.5864697 C15.6523308,11.8720551 15.7936542,12.1912389 15.897987,12.5222809 C15.921699,12.6033121 15.9586897,12.6784141 15.9861956,12.7564808 C16.0725072,12.9649878 16.1578704,13.1734948 16.2403881,13.3839783 C16.2669456,13.4561158 16.2735849,13.5391233 16.2887606,13.6162017 C16.3504118,13.9571256 16.4111145,14.2980494 16.4651778,14.6409496 C16.4926837,14.8257402 16.5163957,15.0154718 16.5192411,15.2022387 C16.5220866,15.529328 16.4879413,15.8574054 16.5078594,16.1835065 C16.5258805,16.479962 16.4841474,16.7665357 16.4651778,17.0580503 C16.455693,17.2774273 16.4329295,17.5037217 16.3352361,17.7112406 C16.2991939,17.7863426 16.2887606,17.8723147 16.2669456,17.9533459 C16.2346972,18.1134319 16.1796854,18.263636 16.1123434,18.4148283 C16.0231863,18.6174063 15.9055748,18.8031851 15.8173662,19.005763 C15.8059845,19.0265149 15.7955512,19.0502313 15.7927058,19.0759241 C15.7680453,19.2557738 15.6513823,19.3723796 15.5356678,19.4889855 C15.4597894,19.5591466 15.3914989,19.6293078 15.3497658,19.7291144 C15.3146721,19.8131102 15.2558663,19.8733895 15.1828334,19.9267515 C15.0965218,19.9860426 15.0272827,20.0670737 14.9627861,20.1253766 L14.7209238,20.1253766 C14.7190269,20.1362467 14.7171299,20.1481049 14.7142845,20.1579868 C14.5236401,20.0334754 14.339635,19.9079759 14.1518361,19.7864292 C13.9621402,19.6648824 13.7639079,19.5561821 13.574212,19.4287062 C13.3532163,19.2755375 13.1047146,19.1638726 12.9140702,18.963271 C12.7300652,18.7725513 12.5593389,18.5729379 12.3762823,18.386171 C12.1514927,18.1579002 11.9456726,17.9088776 11.6962225,17.7053115 C11.4761752,17.52645 11.2817369,17.3120138 11.0759168,17.1114123 C10.9602023,16.9997473 10.8473332,16.8861061 10.7354126,16.7704884 C10.6785039,16.7111973 10.6320284,16.6430125 10.577965,16.5797687 C10.3797328,16.3544625 10.1966762,16.111369 9.9756805,15.9038501 C9.76037564,15.7042367 9.56404036,15.4809069 9.36580813,15.2595535 C9.05280987,14.9146769 8.73981161,14.5678239 8.44009206,14.2071364 C8.23616895,13.9660193 8.05595783,13.7021738 7.862468,13.452163 C7.76762004,13.3266635 7.65759641,13.2149986 7.56369693,13.0904873 C7.37779493,12.8444292 7.19094446,12.6013357 7.01832117,12.3444076 C6.77930432,11.9866846 6.55451466,11.6180916 6.32118868,11.2544395 C6.31075541,11.2366522 6.30032213,11.219853 6.28988885,11.2050302 C5.98542691,10.8067917 5.72933742,10.3779194 5.5073932,9.92631879 C5.39736957,9.70200078 5.29493378,9.47076548 5.1868071,9.24545929 C5.06255628,8.98359025 4.92882066,8.72468577 4.81215767,8.45985218 C4.6992886,8.20193588 4.60444064,7.93710229 4.50200485,7.67720962 C4.47070502,7.599143 4.43561128,7.52404094 4.40431145,7.44696251 C4.35404203,7.33035667 4.30282413,7.21375084 4.25634864,7.09516863 C4.17667635,6.88962614 4.10079798,6.68309547 4.02302266,6.47656479 C3.98223804,6.36588807 3.95662909,6.25323497 3.9376595,6.13465276 C3.90351423,5.9142875 3.84281154,5.69787497 3.73468487,5.50122615 C3.68062153,5.40339583 3.66260042,5.39746672 3.53455568,5.42810046 C3.44729555,5.44885234 3.39607766,5.50221434 3.3989231,5.58917462 C3.40176853,5.78779981 3.41125333,5.98444864 3.41884117,6.18307383 C3.42358356,6.32537248 3.43306836,6.46865931 3.426429,6.61293433 C3.41599573,6.9252008 3.45678035,7.23153817 3.51179217,7.53688735 C3.52601936,7.61989489 3.52696784,7.70389062 3.53740111,7.78689816 C3.54783439,7.87385845 3.55162831,7.96477147 3.57249486,8.04975538 C3.62086732,8.2404751 3.67303369,8.43020663 3.75934534,8.61104449 C3.8304813,8.76124862 3.86842049,8.9272637 3.91774143,9.08833787 C4.02681658,9.436179 4.13304629,9.78599651 4.24022448,10.1338376 C4.30946349,10.3621084 4.37775402,10.5874146 4.44983847,10.8146971 C4.46596262,10.8700355 4.50200485,10.9194448 4.52381988,10.9737949 C4.6480707,11.2702504 4.76852761,11.5657178 4.89277843,11.8611851 C4.98003855,12.063763 5.07298955,12.266341 5.16214663,12.4679307 C5.19249798,12.5341391 5.20957061,12.608253 5.2427674,12.6744614 C5.36891518,12.923484 5.50170232,13.1705303 5.63069555,13.4185647 C5.69424368,13.5420879 5.75684333,13.6626464 5.82133994,13.783205 C6.0138813,14.1369753 6.20831961,14.4887691 6.4037064,14.840563 C6.4501819,14.9265351 6.50709068,15.0075663 6.55546314,15.0935384 C6.68445636,15.3247737 6.8125011,15.556009 6.93864889,15.7882325 C7.20232621,16.2744195 7.50204576,16.7289846 7.89376782,17.1163532 C8.0294004,17.2527227 8.14226947,17.4157732 8.26272638,17.5689419 C8.51881587,17.8871375 8.73506921,18.2379432 9.03668572,18.5195759 C9.21594836,18.685591 9.35632334,18.8970626 9.52799814,19.0749359 C9.66268224,19.2122937 9.81823289,19.3279113 9.96240179,19.4573636 C9.99465009,19.4860209 10.0212075,19.518631 10.0496619,19.5502529 C10.1141585,19.6214023 10.1767582,19.6955161 10.2450487,19.7656773 C10.3617117,19.8852477 10.4916534,19.9909835 10.601677,20.1224121 C10.8207758,20.3892221 11.0436685,20.6550438 11.3101913,20.8763973 C11.3983999,20.9514993 11.4685874,21.0463651 11.5511051,21.1293727 C11.7958128,21.3734544 12.0424175,21.6135833 12.2804859,21.8606296 C12.3715399,21.9545072 12.4436244,22.0681484 12.5289875,22.1669669 C12.810686,22.482198 13.0914359,22.8023699 13.3854646,23.1057427 C13.5505,23.2747224 13.7449384,23.4150447 13.9336858,23.5593197 C14.5539914,24.0326603 15.1420488,24.5850558 15.7452818,25.0791483 C16.2261609,25.4724459 16.7335975,25.8578381 17.2144767,26.2501476 C17.6488803,26.6058942 18.0406024,26.9804163 18.5338118,27.2521672 C18.7728286,27.3835958 18.9691639,27.5812328 19.2091292,27.715626 C19.2461199,27.7363779 19.2783682,27.7670116 19.3049256,27.7996217 C19.4035675,27.9191921 19.5249729,28.0061524 19.6549146,28.0802663 C19.8322803,28.1771084 20.0020581,28.2887733 20.1784753,28.3826509 C20.4203376,28.5111149 20.660303,28.639579 20.9296712,28.7057874 C20.9514862,28.7117165 20.9789921,28.7136929 20.9951163,28.7275275 C21.1079853,28.8144878 21.241721,28.8559915 21.3707142,28.901448 C21.3839929,28.9054008 21.3915807,28.9202236 21.4285714,28.9528337" class="we-icon__organic-path"/>
            </g>
        </g>
    </g>
</svg>
